<?xml version="1.0" encoding="UTF-8"?>
<svg version="1.1" xmlns="http://www.w3.org/2000/svg" width="1021" height="412">
<path d="M0 0 C336.93 0 673.86 0 1021 0 C1021 135.96 1021 271.92 1021 412 C684.07 412 347.14 412 0 412 C0 276.04 0 140.08 0 0 Z " fill="#FEFEFE" transform="translate(0,0)"/>
<path d="M0 0 C0 0.66 0 1.32 0 2 C0.99 2.2784375 0.99 2.2784375 2 2.5625 C6.36381191 4.65349321 9.48283988 7.71649737 13 11 C13.79921875 11.68835938 14.5984375 12.37671875 15.421875 13.0859375 C27.44991966 24.03071106 35.94523562 41.64754003 37.14111328 57.92016602 C38.63233443 89.7790943 21.10374281 115.73298841 0.875 138.8125 C0.17117188 139.62203125 -0.53265625 140.4315625 -1.2578125 141.265625 C-3.5424211 143.54372474 -5.72864389 145.32529331 -8.3046875 147.234375 C-15.41896289 152.85446681 -20.99130819 157.85337284 -22.13052368 167.18507385 C-22.86711846 176.11073779 -22.57576865 185.07282159 -22 194 C-26.94615513 195.438086 -31.88822854 195.18419782 -37 195.1875 C-37.99773437 195.19974609 -38.99546875 195.21199219 -40.0234375 195.22460938 C-40.98507812 195.22654297 -41.94671875 195.22847656 -42.9375 195.23046875 C-43.81277344 195.23457764 -44.68804687 195.23868652 -45.58984375 195.24291992 C-48.15797237 194.98407795 -49.7878246 194.29503365 -52 193 C-51.95174072 192.07364746 -51.90348145 191.14729492 -51.85375977 190.19287109 C-50.2500492 171.65176647 -50.2500492 171.65176647 -56.16015625 154.97265625 C-59.22327184 151.95118657 -62.62969618 149.49806889 -66.24755859 147.18164062 C-68.53447716 145.63961139 -70.20078141 143.81874248 -71.9375 141.6875 C-72.44410156 141.07777344 -72.95070313 140.46804687 -73.47265625 139.83984375 C-73.97667969 139.23269531 -74.48070312 138.62554687 -75 138 C-76.28946014 136.58132464 -77.58126907 135.16478178 -78.875 133.75 C-98.55161517 111.39706361 -111.55504092 86.14731602 -110 56 C-107.95006241 36.01874019 -95.91206424 18.21153893 -80.79345703 5.71435547 C-57.42049469 -12.96086612 -26.04032568 -13.49856008 0 0 Z " fill="#454748" transform="translate(537,80)"/>
<path d="M0 0 C5.24652324 1.40911688 8.8972868 5.52514508 11.85546875 9.90625 C13.58926624 13.1367842 14.96680435 16.44361619 16.25 19.87109375 C16.50869873 20.56203125 16.76739746 21.25296875 17.03393555 21.96484375 C28.24812788 52.93704338 25.61489008 84.22673395 15.6796875 115.140625 C14.75021673 118.04436169 14.04541435 120.88385597 13.484375 123.87890625 C12.15193427 130.16246669 9.33390859 135.86350989 6.6875 141.68359375 C6.171875 142.83537109 5.65625 143.98714844 5.125 145.17382812 C3.86161904 147.99303933 2.59066279 150.8085613 1.3125 153.62109375 C-0.9975 153.62109375 -3.3075 153.62109375 -5.6875 153.62109375 C-10.94860845 142.47628081 -15.77059633 131.4756367 -19.11816406 119.60400391 C-19.71345094 117.53071057 -20.34834092 115.47276429 -20.9921875 113.4140625 C-23.93739621 103.90385365 -26.10213557 94.45463801 -27.6875 84.62109375 C-27.873125 83.52410156 -28.05875 82.42710937 -28.25 81.296875 C-30.53436318 62.10414504 -28.29293283 42.75502075 -22.375 24.43359375 C-22.10357178 23.58466553 -21.83214355 22.7357373 -21.55249023 21.86108398 C-18.14636623 11.99940478 -11.99558546 -0.66867284 0 0 Z " fill="#75CDE3" transform="translate(502.6875,79.37890625)"/>
<path d="M0 0 C-1.8848821 4.88806746 -4.1702859 9.55132812 -6.46484375 14.2578125 C-20.58139252 46.38886406 -15.53750904 89.05113917 -4 121 C-1.82199652 126.52542107 0.46877729 131.9991921 2.88696289 137.42382812 C3.30582764 138.37322266 3.72469238 139.32261719 4.15625 140.30078125 C4.53587891 141.13778564 4.91550781 141.97479004 5.30664062 142.8371582 C6 145 6 145 5 148 C1.24073436 144.28786112 -2.50673366 140.56422407 -6.234375 136.8203125 C-6.86311523 136.18883301 -7.49185547 135.55735352 -8.13964844 134.90673828 C-11.24745421 131.72144129 -14.20568807 128.46309275 -17 125 C-17.72960937 124.10925781 -18.45921875 123.21851563 -19.2109375 122.30078125 C-29.34767618 109.55790943 -39.47927054 96.14048702 -43 80 C-43.21914063 79.27554688 -43.43828125 78.55109375 -43.6640625 77.8046875 C-48.03820839 62.46601591 -44.71785099 45.06179892 -38 31 C-35.57239913 27.12084398 -32.87048928 23.55940671 -30 20 C-29.54109375 19.36578125 -29.0821875 18.7315625 -28.609375 18.078125 C-22.98254006 10.68866706 -9.53229267 0 0 0 Z " fill="#4AC6EC" transform="translate(481,83)"/>
<path d="M0 0 C13.94250502 2.198818 25.56607351 13.36229133 33.70751953 24.26293945 C36.63766328 28.32754415 39.18511313 32.32763168 41 37 C41.42539062 38.09054688 41.42539062 38.09054688 41.859375 39.203125 C47.73768268 55.50711045 46.55080908 75.03317641 39.375 90.66796875 C28.63342949 112.56157882 11.593038 130.47421726 -5 148 C-6.46396642 143.60810073 -4.32613444 140.69492949 -2.5 136.6875 C2.17209099 126.03455408 5.70401847 115.14488669 9 104 C9.3403125 102.88109375 9.680625 101.7621875 10.03125 100.609375 C17.95714841 72.2346587 16.35849139 34.76409486 4 8 C2.76531259 5.88908282 1.44301505 3.97746507 0 2 C0 1.34 0 0.68 0 0 Z " fill="#47C4EC" transform="translate(520,83)"/>
<path d="M0 0 C4.16335409 -0.60715581 7.58761549 -0.85907924 11.2734375 1.3828125 C17.18902301 6.46273909 20.22054211 11.99287422 22.9375 19.25 C23.19619873 19.9409375 23.45489746 20.631875 23.72143555 21.34375 C34.93562788 52.31594963 32.30239008 83.6056402 22.3671875 114.51953125 C21.43771673 117.42326794 20.73291435 120.26276222 20.171875 123.2578125 C18.83943427 129.54137294 16.02140859 135.24241614 13.375 141.0625 C12.859375 142.21427734 12.34375 143.36605469 11.8125 144.55273438 C10.54911904 147.37194558 9.27816279 150.18746755 8 153 C6.68 152.67 5.36 152.34 4 152 C4.46055786 150.84552368 4.46055786 150.84552368 4.93041992 149.66772461 C7.88852158 142.23775096 10.81672073 134.79700114 13.70556641 127.33984375 C14.44302303 125.43708882 15.18308495 123.53532713 15.93115234 121.63671875 C20.88734626 108.94570927 22.78098471 95.38210309 25 82 C25.20753906 80.75089844 25.41507813 79.50179687 25.62890625 78.21484375 C27.05512203 65.85931127 26.09329269 53.21423329 24 41 C23.87641113 40.26749023 23.75282227 39.53498047 23.62548828 38.78027344 C21.51487129 26.79196895 18.38312309 15.17922109 10.27734375 5.734375 C8 3 8 3 8 1 C5.36 1 2.72 1 0 1 C0 0.67 0 0.34 0 0 Z " fill="#52B7DA" transform="translate(496,80)"/>
<path d="M0 0 C13.94250502 2.198818 25.56607351 13.36229133 33.70751953 24.26293945 C36.63766328 28.32754415 39.18511313 32.32763168 41 37 C41.42539062 38.09054688 41.42539062 38.09054688 41.859375 39.203125 C47.73768268 55.50711045 46.55080908 75.03317641 39.375 90.66796875 C28.63342949 112.56157882 11.593038 130.47421726 -5 148 C-6.39195915 143.82412255 -4.82323219 141.86525224 -3 138 C-2.34 138.66 -1.68 139.32 -1 140 C0.56747231 138.22279548 2.12825606 136.44019657 3.68359375 134.65234375 C5.3735319 132.71732182 7.07447734 130.7953549 8.78515625 128.87890625 C26.78166339 108.53272426 42.69710186 85.23360362 41 57 C40.94328125 55.93265625 40.8865625 54.8653125 40.828125 53.765625 C39.19451912 36.5738679 29.40101044 22.2161862 16.62890625 11.08203125 C11.64161939 7.13221863 6.32864996 3.27150958 0 2 C0 1.34 0 0.68 0 0 Z " fill="#3194C9" transform="translate(520,83)"/>
<path d="M0 0 C0.66 0.33 1.32 0.66 2 1 C0.69675781 1.96099609 0.69675781 1.96099609 -0.6328125 2.94140625 C-16.38279993 14.69284593 -27.84014299 30.11647085 -31 50 C-31.34452677 54.27424135 -31.41510835 58.52574211 -31.4375 62.8125 C-31.47037109 63.91142578 -31.50324219 65.01035156 -31.53710938 66.14257812 C-31.59099821 74.45615616 -29.65335354 80.58449291 -26 88 C-25.53557495 89.01864136 -25.53557495 89.01864136 -25.06176758 90.05786133 C-19.7166716 101.78053597 -12.81870996 112.16231853 -4.46875 121.94140625 C-3 124 -3 124 -3 127 C-11.73195961 118.2294034 -18.44672252 108.46329996 -25 98 C-25.96679688 96.46085937 -25.96679688 96.46085937 -26.953125 94.890625 C-30.99601446 87.98912683 -33.13429801 80.74983902 -35 73 C-35.29390625 71.81083984 -35.29390625 71.81083984 -35.59375 70.59765625 C-38.21188014 53.85672793 -34.99646924 35.97177548 -25.0625 22.125 C-23.72139255 20.40639564 -22.36846725 18.69689939 -21 17 C-20.54109375 16.36578125 -20.0821875 15.7315625 -19.609375 15.078125 C-14.78859729 8.74722415 -7.10635108 3.55317554 0 0 Z " fill="#F0F4F6" transform="translate(472,86)"/>
<path d="M0 0 C1.98 0 3.96 0 6 0 C6 8.25 6 16.5 6 25 C3.69 25 1.38 25 -1 25 C-2.92409498 22.75161934 -4.105419 21.05780823 -5.4375 18.5 C-5.78748047 17.87996094 -6.13746094 17.25992187 -6.49804688 16.62109375 C-7.35569369 15.0937775 -8.18111194 13.54844287 -9 12 C-9.33 16.29 -9.66 20.58 -10 25 C-11.98 25 -13.96 25 -16 25 C-16 17.08 -16 9.16 -16 1 C-13.69 1 -11.38 1 -9 1 C-7.07590502 3.24838066 -5.894581 4.94219177 -4.5625 7.5 C-4.21251953 8.12003906 -3.86253906 8.74007813 -3.50195312 9.37890625 C-2.64430631 10.9062225 -1.81888806 12.45155713 -1 14 C-0.67 9.38 -0.34 4.76 0 0 Z " fill="#4E4E4F" transform="translate(434,346)"/>
<path d="M0 0 C2.05078125 0.03255208 4.1015625 0.06510417 6.15234375 0.09765625 C6.49007813 1.19464844 6.8278125 2.29164063 7.17578125 3.421875 C7.62619477 4.87633532 8.07672159 6.33076056 8.52734375 7.78515625 C8.7490625 8.50638672 8.97078125 9.22761719 9.19921875 9.97070312 C10.1443248 13.01450054 11.1037465 15.97942468 12.31640625 18.9296875 C13.15234375 21.09765625 13.15234375 21.09765625 13.15234375 24.09765625 C11.17234375 24.09765625 9.19234375 24.09765625 7.15234375 24.09765625 C7.15234375 22.77765625 7.15234375 21.45765625 7.15234375 20.09765625 C3.52234375 20.09765625 -0.10765625 20.09765625 -3.84765625 20.09765625 C-4.17765625 21.41765625 -4.50765625 22.73765625 -4.84765625 24.09765625 C-6.49765625 24.09765625 -8.14765625 24.09765625 -9.84765625 24.09765625 C-4.91568898 0.25981443 -4.91568898 0.25981443 0 0 Z " fill="#4C4C4D" transform="translate(476.84765625,346.90234375)"/>
<path d="M0 0 C0.95294952 -0.0033284 1.90589905 -0.0066568 2.88772583 -0.01008606 C4.89991779 -0.01513923 6.9121181 -0.01749488 8.92431641 -0.01733398 C11.99005045 -0.01951859 15.05542339 -0.03768634 18.12109375 -0.05664062 C20.08072794 -0.05957532 22.04036384 -0.06155961 24 -0.0625 C24.91063202 -0.06968552 25.82126404 -0.07687103 26.75949097 -0.08427429 C31.94417548 -0.06581733 36.22279874 0.47986404 41.1328125 2.16796875 C41.1328125 2.82796875 41.1328125 3.48796875 41.1328125 4.16796875 C32.32951827 6.01354954 23.74315369 6.48169034 14.78759766 6.42871094 C12.63545576 6.41798193 10.48414817 6.42867473 8.33203125 6.44140625 C0.10275276 6.44848337 -7.78746484 5.86185521 -15.8671875 4.16796875 C-15.5371875 3.17796875 -15.2071875 2.18796875 -14.8671875 1.16796875 C-9.93950377 -0.11282019 -5.05375908 0.00614853 0 0 Z " fill="#ABADB0" transform="translate(487.8671875,299.83203125)"/>
<path d="M0 0 C1.98 0 3.96 0 6 0 C6.32613281 0.92683594 6.65226563 1.85367187 6.98828125 2.80859375 C7.42527344 4.00613281 7.86226562 5.20367187 8.3125 6.4375 C8.74175781 7.63246094 9.17101562 8.82742188 9.61328125 10.05859375 C10.07089844 11.02925781 10.52851562 11.99992187 11 13 C11.99 13.33 12.98 13.66 14 14 C14.13277344 13.15695312 14.26554688 12.31390625 14.40234375 11.4453125 C14.57894531 10.34960938 14.75554688 9.25390625 14.9375 8.125 C15.11152344 7.03445313 15.28554688 5.94390625 15.46484375 4.8203125 C16 2 16 2 17 0 C19.31 0 21.62 0 24 0 C21.36 7.92 18.72 15.84 16 24 C13.36 24 10.72 24 8 24 C6.65533814 20.75457277 5.3262825 17.50297666 4 14.25 C3.6184375 13.32960938 3.236875 12.40921875 2.84375 11.4609375 C2.4828125 10.57148438 2.121875 9.68203125 1.75 8.765625 C1.41484375 7.94868164 1.0796875 7.13173828 0.734375 6.29003906 C0 4 0 4 0 0 Z " fill="#4E4E4F" transform="translate(516,347)"/>
<path d="M0 0 C2.5 1 2.5 1 4 3 C4.82086855 7.40284039 4.97777924 9.57093804 2.42578125 13.30078125 C0.68589335 15.28771205 -1.09447746 17.17225389 -3 19 C-0.36 19.33 2.28 19.66 5 20 C5 21.65 5 23.3 5 25 C-0.94 25 -6.88 25 -13 25 C-13 20 -13 20 -11.1015625 18.0078125 C-10.28429687 17.38648438 -9.46703125 16.76515625 -8.625 16.125 C-4.35655559 12.60035046 -2.79456422 10.44844035 -2 5 C-3.32 5 -4.64 5 -6 5 C-6 5.99 -6 6.98 -6 8 C-7.98 8 -9.96 8 -12 8 C-11.65447612 5.44312331 -11.24912987 3.42498625 -9.9375 1.1875 C-6.78598838 -0.74407164 -3.53780935 -0.49828301 0 0 Z " fill="#525253" transform="translate(578,346)"/>
<path d="M0 0 C4.29 0 8.58 0 13 0 C13 3.96 13 7.92 13 12 C8.71 12 4.42 12 0 12 C0 8.04 0 4.08 0 0 Z " fill="#FEFEFE" transform="translate(494,242)"/>
<path d="M0 0 C1.32 0 2.64 0 4 0 C4.4125 0.87140625 4.825 1.7428125 5.25 2.640625 C10.75057377 14.06476942 17.27421732 24.27115067 25.53125 33.94140625 C27 36 27 36 27 39 C18.26412838 30.22547409 11.62880181 20.41467301 5 10 C4.51611816 9.25411621 4.03223633 8.50823242 3.53369141 7.73974609 C3.07526855 7.02512207 2.6168457 6.31049805 2.14453125 5.57421875 C1.73178955 4.93444092 1.31904785 4.29466309 0.89379883 3.63549805 C0 2 0 2 0 0 Z " fill="#E6F3F7" transform="translate(442,174)"/>
<path d="M0 0 C3.37418078 3.4408642 4.4706691 5.82260162 4.45410156 10.67333984 C4.42799805 11.3586377 4.40189453 12.04393555 4.375 12.75 C4.35920898 13.45721191 4.34341797 14.16442383 4.32714844 14.89306641 C4.15418856 20.20731968 3.73367628 24.97233878 2 30 C-0.078125 31.2265625 -0.078125 31.2265625 -2 32 C-1.855625 31.11441406 -1.71125 30.22882813 -1.5625 29.31640625 C-0.08771378 19.47425655 0.21903509 9.9417594 0 0 Z " fill="#3199D0" transform="translate(561,134)"/>
<path d="M0 0 C0.66 0.33 1.32 0.66 2 1 C0.69675781 1.96099609 0.69675781 1.96099609 -0.6328125 2.94140625 C-7.98685035 8.43270518 -14.25277867 13.59677611 -19.1875 21.4375 C-19.785625 22.283125 -20.38375 23.12875 -21 24 C-21.99 24 -22.98 24 -24 24 C-24.66 24.33 -25.32 24.66 -26 25 C-21.15418744 14.51673222 -10.89408116 4.24194311 0 0 Z " fill="#E5EBEE" transform="translate(472,86)"/>
<path d="M0 0 C0.99 0.33 1.98 0.66 3 1 C-2.28 6.61 -7.56 12.22 -13 18 C-14.39195915 13.82412255 -12.82323219 11.86525224 -11 8 C-10.34 8.66 -9.68 9.32 -9 10 C-8.51789062 9.44570312 -8.03578125 8.89140625 -7.5390625 8.3203125 C-6.59160156 7.23363281 -6.59160156 7.23363281 -5.625 6.125 C-4.99851562 5.40570313 -4.37203125 4.68640625 -3.7265625 3.9453125 C-2.52573166 2.5923402 -1.2791655 1.2791655 0 0 Z " fill="#378BB8" transform="translate(528,213)"/>
<path d="M0 0 C2.04104187 1.95845636 3.75961474 3.92991647 5.375 6.25 C5.80296875 6.8584375 6.2309375 7.466875 6.671875 8.09375 C7.55729167 9.36458333 8.44270833 10.63541667 9.328125 11.90625 C9.75609375 12.5146875 10.1840625 13.123125 10.625 13.75 C11.00914062 14.30171875 11.39328125 14.8534375 11.7890625 15.421875 C13.07409185 17.09655842 14.47829877 18.5398705 16 20 C15.67 20.66 15.34 21.32 15 22 C0 5.89320388 0 5.89320388 0 0 Z " fill="#CDE2E9" transform="translate(454,191)"/>
<path d="M0 0 C0.66 0 1.32 0 2 0 C0.36041242 5.23272633 -1.38952035 10.15196636 -4 15 C-5.14453125 13.32421875 -5.14453125 13.32421875 -6 11 C-5.13671875 8.45703125 -5.13671875 8.45703125 -3.6875 5.8125 C-3.21699219 4.93207031 -2.74648438 4.05164063 -2.26171875 3.14453125 C-1 1 -1 1 0 0 Z " fill="#308CBF" transform="translate(560,165)"/>
<path d="M0 0 C2.9517885 3.46071755 5.28901641 6.76756692 7 11 C6.6875 13.375 6.6875 13.375 6 15 C6 14.01 6 13.02 6 12 C5.01 12 4.02 12 3 12 C0.58314288 7.77050005 -0.34833144 4.87664009 0 0 Z " fill="#338ABA" transform="translate(554,109)"/>
<path d="M0 0 C0.66 0.33 1.32 0.66 2 1 C0.23871656 2.36656457 -1.53436088 3.71794085 -3.3125 5.0625 C-4.29863281 5.81660156 -5.28476562 6.57070312 -6.30078125 7.34765625 C-7.63689453 8.16556641 -7.63689453 8.16556641 -9 9 C-9.99 8.67 -10.98 8.34 -12 8 C-10.37615858 6.85252535 -8.75088944 5.7070709 -7.125 4.5625 C-6.22007812 3.92441406 -5.31515625 3.28632812 -4.3828125 2.62890625 C-2 1 -2 1 0 0 Z " fill="#D4E4E9" transform="translate(472,86)"/>
<path d="M0 0 C2.5654594 2.5654594 2.54046087 4.47686668 3 8 C1.35 8 -0.3 8 -2 8 C-1.125 2.25 -1.125 2.25 0 0 Z " fill="#EAEAEA" transform="translate(478,354)"/>
<path d="M0 0 C1.32 0 2.64 0 4 0 C4.66 1.98 5.32 3.96 6 6 C5.01 6.33 4.02 6.66 3 7 C0 2.25 0 2.25 0 0 Z " fill="#DDE5E8" transform="translate(442,174)"/>
<path d="M0 0 C3.95820859 0.56545837 6.6659053 1.80902348 10 4 C9.67 4.66 9.34 5.32 9 6 C8.2575 5.525625 7.515 5.05125 6.75 4.5625 C4.38949985 3.22130673 2.63351523 2.487688 0 2 C0 1.34 0 0.68 0 0 Z " fill="#3990BC" transform="translate(520,83)"/>
<path d="M0 0 C2.64 0 5.28 0 8 0 C8.33 1.65 8.66 3.3 9 5 C8.34 4.67 7.68 4.34 7 4 C7 3.01 7 2.02 7 1 C4.36 1.66 1.72 2.32 -1 3 C-0.67 2.01 -0.34 1.02 0 0 Z " fill="#6A6A6B" transform="translate(475,347)"/>
</svg>
